<?xml version="1.0" encoding="UTF-8"?>
<svg version="1.1" xmlns="http://www.w3.org/2000/svg" width="440" height="228">
<path d="M0 0 C145.2 0 290.4 0 440 0 C440 75.24 440 150.48 440 228 C294.8 228 149.6 228 0 228 C0 152.76 0 77.52 0 0 Z " fill="#015085" transform="translate(0,0)"/>
<path d="M0 0 C2.95367161 1.50491253 5.18803772 3.64508819 7.5546875 5.921875 C8.6248319 6.92726229 9.69514932 7.93246545 10.765625 8.9375 C11.58305176 9.7119043 11.58305176 9.7119043 12.41699219 10.50195312 C14.97951971 12.9193166 17.57953015 15.29514232 20.1796875 17.671875 C20.67919922 18.12997559 21.17871094 18.58807617 21.69335938 19.06005859 C25.60051872 22.64162133 29.5390444 26.18718231 33.484375 29.7265625 C36.91610042 32.82450308 40.31706854 35.95540181 43.71679688 39.08837891 C47.18912715 42.27962653 50.72092776 45.38569908 54.3359375 48.4140625 C56.48189421 50.45272137 58.24680451 52.70772814 60.0546875 55.046875 C45.14385909 56.26685187 45.14385909 56.26685187 40.42578125 53.51171875 C38.46497507 51.45584318 36.76860537 49.31069158 35.0546875 47.046875 C33.83557928 45.9086926 32.58446555 44.80388525 31.3046875 43.734375 C27.91524904 40.81495633 24.59808143 37.8237515 21.3046875 34.796875 C20.8003418 34.33442383 20.29599609 33.87197266 19.77636719 33.39550781 C17.09185115 30.93089542 14.41872666 28.45492407 11.7578125 25.96484375 C10.9529541 25.21605957 10.9529541 25.21605957 10.13183594 24.45214844 C8.6343817 23.05854242 7.14128421 21.66025929 5.6484375 20.26171875 C3.43167431 18.36878995 1.65051201 17.26375395 -0.9453125 16.046875 C-1.5640625 16.62804077 -1.5640625 16.62804077 -2.1953125 17.22094727 C-15.71227047 29.90629552 -15.71227047 29.90629552 -20.3203125 33.921875 C-20.86184464 34.40047974 -21.40337677 34.87908447 -21.96131897 35.37219238 C-23.9453125 37.046875 -23.9453125 37.046875 -26.22947693 38.69006348 C-29.67109384 41.32833631 -32.44782191 43.46055954 -33.77444458 47.69067383 C-34.07907642 50.74804117 -34.11470278 53.69403882 -34.04296875 56.765625 C-34.05243027 57.86410767 -34.06189178 58.96259033 -34.07164001 60.09436035 C-34.09212892 63.57992502 -34.05090926 67.06157482 -34.0078125 70.546875 C-34.01088892 72.91927965 -34.01800762 75.29168272 -34.02929688 77.6640625 C-34.05564565 83.46079229 -33.99845321 89.24816116 -33.9453125 95.046875 C-22.7253125 95.046875 -11.5053125 95.046875 0.0546875 95.046875 C0.5496875 100.491875 0.5496875 100.491875 1.0546875 106.046875 C-14.1253125 106.046875 -29.3053125 106.046875 -44.9453125 106.046875 C-44.9453125 89.216875 -44.9453125 72.386875 -44.9453125 55.046875 C-50.2253125 55.046875 -55.5053125 55.046875 -60.9453125 55.046875 C-54.00416591 46.37044176 -45.49916117 39.23700992 -37.12890625 31.98046875 C-33.65867711 28.90754671 -30.27019208 25.7467778 -26.87011719 22.59667969 C-22.73576626 18.7687543 -18.57421593 14.97428506 -14.36328125 11.23046875 C-12.63208073 9.66707442 -10.92927607 8.07200937 -9.24609375 6.45703125 C-8.36308594 5.62042969 -7.48007813 4.78382812 -6.5703125 3.921875 C-5.77882812 3.15617187 -4.98734375 2.39046875 -4.171875 1.6015625 C-1.9453125 0.046875 -1.9453125 0.046875 0 0 Z " fill="#FAFBFC" transform="translate(90.9453125,45.953125)"/>
<path d="M0 0 C0.66894287 -0.00644531 1.33788574 -0.01289062 2.02709961 -0.01953125 C10.14923179 0.18870288 17.17371967 3.8678261 22.875 9.5 C28.72624669 17.0656247 30.04447277 24.10841764 28.875 33.5 C27.47591585 41.48950684 23.22099232 47.23239757 16.78125 52.07421875 C9.12510997 57.05928008 1.93236727 57.20220038 -7.125 56.5 C-14.90179517 54.52434168 -21.01280638 47.97489918 -25.0625 41.3125 C-28.0721567 33.34576169 -28.75473882 23.27310172 -25.22265625 15.37109375 C-19.3242425 5.31650235 -11.70267029 0.10747487 0 0 Z " fill="#F9FAFC" transform="translate(129.125,112.5)"/>
<path d="M0 0 C28.86363636 0 28.86363636 0 34.875 5.75 C37.41706045 9.63785715 37.65175091 11.43774363 37 16 C35.42275698 19.98066095 34.58999089 21.60667274 31 24 C31.5053125 24.29390625 32.010625 24.5878125 32.53125 24.890625 C35.86769404 27.19436017 37.73281329 28.80743494 38.640625 32.859375 C38.81240363 37.7918757 38.47396224 41.11527049 36.125 45.5 C24.64982919 54.68013665 14.93152524 52 0 52 C0 34.84 0 17.68 0 0 Z " fill="#FAFBFC" transform="translate(285,45)"/>
<path d="M0 0 C4.62 0 9.24 0 14 0 C15.10705006 3.12400429 16.21069218 6.24914683 17.3125 9.375 C17.7755957 10.68017578 17.7755957 10.68017578 18.24804688 12.01171875 C20.34110934 17.96042258 22.24186889 23.94394336 24 30 C24.66 30 25.32 30 26 30 C26.26067261 29.1020874 26.26067261 29.1020874 26.52661133 28.18603516 C28.39465367 21.84463609 30.4771835 15.60449326 32.6875 9.375 C33.00783203 8.46621094 33.32816406 7.55742188 33.65820312 6.62109375 C34.43673008 4.41333075 35.21806439 2.20655804 36 0 C40.29 0 44.58 0 49 0 C49 16.83 49 33.66 49 51 C45.37 51 41.74 51 38 51 C37.9729448 46.81245636 37.95313367 42.62508888 37.9375 38.4375 C37.92912109 37.25607422 37.92074219 36.07464844 37.91210938 34.85742188 C37.89607001 29.13136928 37.9489295 23.63605518 39 18 C38.69707031 18.99257813 38.39414062 19.98515625 38.08203125 21.0078125 C35.28644273 30.09769388 32.27816756 39.07222452 29 48 C26.69 48 24.38 48 22 48 C21.07417962 45.94159269 20.15997428 43.87796141 19.25 41.8125 C18.73953125 40.66394531 18.2290625 39.51539063 17.703125 38.33203125 C15.47777797 32.67168755 13.78865277 26.81312149 12 21 C12 30.9 12 40.8 12 51 C8.04 51 4.08 51 0 51 C0 34.17 0 17.34 0 0 Z " fill="#F8F9FB" transform="translate(225,45)"/>
<path d="M0 0 C0.75182021 -0.00382555 1.50364042 -0.00765109 2.27824306 -0.01159257 C4.80478791 -0.02193539 7.33110604 -0.01792805 9.85766602 -0.01396179 C11.66602794 -0.01830752 13.47438803 -0.0234902 15.28274536 -0.02944946 C20.19998837 -0.04286467 25.11715464 -0.04341541 30.03441238 -0.04088616 C34.13507808 -0.03981831 38.23572814 -0.04469498 42.3363905 -0.04949158 C52.00723116 -0.06059518 61.67803299 -0.06101918 71.34887695 -0.05497742 C81.33673342 -0.04893374 91.32444916 -0.06125671 101.31228161 -0.08254749 C109.87878158 -0.10013923 118.44523666 -0.10616875 127.01175404 -0.10290974 C132.13205095 -0.1010931 137.25224745 -0.10377107 142.37252808 -0.11762428 C147.18568121 -0.13015885 151.99861419 -0.12830018 156.81176376 -0.11521339 C158.58109485 -0.11283861 160.35044122 -0.11561436 162.11975479 -0.12383652 C164.52947691 -0.13422976 166.9384501 -0.12626395 169.34814453 -0.11352539 C170.05329413 -0.12089968 170.75844374 -0.12827396 171.48496151 -0.13587171 C174.2212267 -0.10530281 176.2449717 0.00900749 178.63194275 1.40908527 C179.67407227 3.26069641 179.67407227 3.26069641 179.67407227 9.26069641 C116.97407227 9.26069641 54.27407227 9.26069641 -10.32592773 9.26069641 C-10.32592773 6.95069641 -10.32592773 4.64069641 -10.32592773 2.26069641 C-6.72892598 -0.13730476 -4.15290358 -0.02225792 0 0 Z " fill="#FEFEFE" transform="translate(118.325927734375,191.7393035888672)"/>
<path d="M0 0 C1.6796875 1.484375 1.6796875 1.484375 2.57421875 3.484375 C2.6796875 5.484375 2.6796875 5.484375 0.2421875 8.234375 C-0.6034375 8.976875 -1.4490625 9.719375 -2.3203125 10.484375 C-3.03058594 10.15953125 -3.74085938 9.8346875 -4.47265625 9.5 C-7.47443544 8.4294066 -9.71006959 8.21672414 -12.8828125 8.234375 C-14.27693359 8.22664063 -14.27693359 8.22664063 -15.69921875 8.21875 C-18.42048817 8.49452693 -20.04229517 8.99135013 -22.3203125 10.484375 C-23.56745653 12.89389523 -23.56745653 12.89389523 -24.3203125 15.484375 C-24.6503125 16.474375 -24.9803125 17.464375 -25.3203125 18.484375 C-25.89802504 24.83921298 -25.63229516 29.9644039 -22.3203125 35.484375 C-19.1397515 38.2408612 -17.26971486 39.39308631 -13.0703125 39.796875 C-10.36260185 39.64858813 -10.36260185 39.64858813 -8.3203125 38.484375 C-7.85380043 36.35860718 -7.85380043 36.35860718 -7.6953125 33.921875 C-7.5715625 32.4575 -7.4478125 30.993125 -7.3203125 29.484375 C-10.2903125 29.484375 -13.2603125 29.484375 -16.3203125 29.484375 C-16.3203125 26.184375 -16.3203125 22.884375 -16.3203125 19.484375 C-10.0503125 19.484375 -3.7803125 19.484375 2.6796875 19.484375 C2.6796875 27.734375 2.6796875 35.984375 2.6796875 44.484375 C-4.19455381 48.41251289 -6.63938792 49.68110672 -14.0703125 49.734375 C-14.77414063 49.755 -15.47796875 49.775625 -16.203125 49.796875 C-22.26495104 49.84194434 -26.22770484 48.22821472 -30.9453125 44.296875 C-37.436434 36.6100206 -38.75252113 28.97434222 -38.66015625 19.1015625 C-38.00506047 12.12893384 -35.08980371 6.81415575 -30.0078125 2.046875 C-20.7678049 -4.96758239 -10.07801618 -5.81010186 0 0 Z " fill="#F6F8FA" transform="translate(211.3203125,47.515625)"/>
<path d="M0 0 C3.91974649 1.84893703 5.61350329 3.36872204 7.875 7.0625 C10.12480975 13.34041222 10.09929285 20.36546354 7.3125 26.4375 C5.02347568 30.41274509 2.10501204 32.94749398 -2 35 C-6.6377859 35.25765477 -8.75824072 35.12087964 -13 33 C-13 37.95 -13 42.9 -13 48 C-15.97 48 -18.94 48 -22 48 C-22 32.49 -22 16.98 -22 1 C-19.36 1 -16.72 1 -14 1 C-13.67 1.66 -13.34 2.32 -13 3 C-12.34 2.505 -11.68 2.01 -11 1.5 C-7.25032702 -0.37483649 -4.07657046 -0.70340824 0 0 Z " fill="#F0F3F7" transform="translate(236,124)"/>
<path d="M0 0 C2.9375 2.0625 2.9375 2.0625 5 4 C5.639375 3.34 6.27875 2.68 6.9375 2 C11.01482767 -0.6627446 14.24721133 -0.87823269 19 0 C21.87029869 1.79393668 23.49131638 2.98263276 25 6 C25.08543895 8.10528933 25.10714725 10.21331157 25.09765625 12.3203125 C25.09443359 13.57714844 25.09121094 14.83398438 25.08789062 16.12890625 C25.07532227 18.10697266 25.07532227 18.10697266 25.0625 20.125 C25.05748489 21.46484211 25.05292201 22.804686 25.04882812 24.14453125 C25.03701086 27.42973206 25.02053617 30.71484397 25 34 C22.36 34 19.72 34 17 34 C16.97494385 33.2479126 16.9498877 32.4958252 16.92407227 31.72094727 C16.80849486 28.33460804 16.68559655 24.94857387 16.5625 21.5625 C16.52318359 20.37849609 16.48386719 19.19449219 16.44335938 17.97460938 C16.40146484 16.84990234 16.35957031 15.72519531 16.31640625 14.56640625 C16.26141968 13.00321655 16.26141968 13.00321655 16.20532227 11.40844727 C16.26484659 9.0500174 16.26484659 9.0500174 15 8 C12.04182893 7.74994614 12.04182893 7.74994614 9 8 C6.39911378 10.60088622 6.70037775 11.82137113 6.5859375 15.4453125 C6.54726563 16.52167969 6.50859375 17.59804687 6.46875 18.70703125 C6.4378125 19.83496094 6.406875 20.96289062 6.375 22.125 C6.33632813 23.26066406 6.29765625 24.39632812 6.2578125 25.56640625 C6.16332399 28.37743956 6.07776459 31.18846233 6 34 C3.36 34 0.72 34 -2 34 C-2.01981934 33.28344238 -2.03963867 32.56688477 -2.06005859 31.82861328 C-2.15509519 28.5936937 -2.26486019 25.35943906 -2.375 22.125 C-2.4059375 20.99707031 -2.436875 19.86914062 -2.46875 18.70703125 C-2.50742187 17.63066406 -2.54609375 16.55429688 -2.5859375 15.4453125 C-2.63306885 13.95281982 -2.63306885 13.95281982 -2.68115234 12.43017578 C-2.77247083 9.82145483 -2.77247083 9.82145483 -5 8 C-8 7.66666667 -8 7.66666667 -11 8 C-13.60088622 10.60088622 -13.29962225 11.82137113 -13.4140625 15.4453125 C-13.47207031 17.05986328 -13.47207031 17.05986328 -13.53125 18.70703125 C-13.5621875 19.83496094 -13.593125 20.96289062 -13.625 22.125 C-13.68300781 23.82849609 -13.68300781 23.82849609 -13.7421875 25.56640625 C-13.83667601 28.37743956 -13.92223541 31.18846233 -14 34 C-16.64 34 -19.28 34 -22 34 C-22 22.78 -22 11.56 -22 0 C-19.69 0 -17.38 0 -15 0 C-15 1.32 -15 2.64 -15 4 C-14.34 4 -13.68 4 -13 4 C-13 3.34 -13 2.68 -13 2 C-8.24125693 -0.9016726 -5.40738332 -1.47474091 0 0 Z " fill="#F8FAFB" transform="translate(376,125)"/>
<path d="M0 0 C3.58145241 2.77562561 5.70716622 5.76993615 7.125 10.0234375 C8.00309452 17.09155638 7.51261981 23.22795214 3.125 29.0234375 C-0.73600754 32.52528154 -4.44381602 33.87736977 -9.5625 34.2578125 C-14.61242929 33.74599534 -18.32065021 30.62959895 -21.75 27.0859375 C-24.47106336 22.09732133 -25.3720689 17.69002292 -24.875 12.0234375 C-22.89217507 5.97060352 -20.10229398 2.05202229 -14.6875 -1.3515625 C-9.77567936 -2.4430782 -4.5395152 -2.36433084 0 0 Z " fill="#F1F5F8" transform="translate(339.875,125.9765625)"/>
<path d="M0 0 C3.62571204 1.87999883 5.70656784 3.41190557 7.0859375 7.234375 C7.31298828 10.16699219 7.31298828 10.16699219 7.28125 13.53125 C7.27480469 14.73652344 7.26835937 15.94179687 7.26171875 17.18359375 C7.24496094 18.43785156 7.22820312 19.69210938 7.2109375 20.984375 C7.20191406 22.25410156 7.19289062 23.52382812 7.18359375 24.83203125 C7.16002755 27.96633593 7.12712582 31.10026041 7.0859375 34.234375 C4.7759375 34.234375 2.4659375 34.234375 0.0859375 34.234375 C-0.2440625 33.574375 -0.5740625 32.914375 -0.9140625 32.234375 C-1.5946875 32.729375 -2.2753125 33.224375 -2.9765625 33.734375 C-6.68025056 35.62561997 -8.79798695 35.81206981 -12.9140625 35.234375 C-15.88329111 33.44088121 -18.33858321 31.38533358 -19.9140625 28.234375 C-20.59675009 21.29371782 -20.59675009 21.29371782 -18.1015625 17.421875 C-13.03500535 13.94482598 -7.07261663 12.234375 -0.9140625 12.234375 C-1.26192958 10.25900755 -1.26192958 10.25900755 -1.9140625 8.234375 C-4.37740411 7.0027042 -5.57987639 7.27635212 -8.2890625 7.609375 C-9.05992187 7.69960937 -9.83078125 7.78984375 -10.625 7.8828125 C-12.76921999 8.21212956 -14.82069891 8.67040947 -16.9140625 9.234375 C-17.5740625 7.254375 -18.2340625 5.274375 -18.9140625 3.234375 C-6.21869826 -2.4874793 -6.21869826 -2.4874793 0 0 Z " fill="#F3F6F9" transform="translate(197.9140625,124.765625)"/>
<path d="M0 0 C3.32406103 1.57124734 5.59694427 3.16782718 8 6 C8 9 8 9 6.70703125 10.3671875 C6.08183594 10.86476562 5.45664063 11.36234375 4.8125 11.875 C0.64465683 15.35195745 -3.1810859 19.08781764 -7 22.9375 C-7.5880542 23.52966309 -8.1761084 24.12182617 -8.78198242 24.73193359 C-10.19000707 26.15262444 -11.59529682 27.57602497 -13 29 C-18.66129431 24.30233025 -23.85228904 19.25276628 -29 14 C-27.44805246 10.67240077 -25.69378051 8.51419515 -23 6 C-19.66272214 7.17255709 -17.22562513 8.18868404 -15 11 C-15 11.66 -15 12.32 -15 13 C-10.90874045 10.78113671 -7.92842268 8.13984728 -4.6875 4.8125 C-3.80449219 3.91144531 -2.92148438 3.01039063 -2.01171875 2.08203125 C-1.01591797 1.05142578 -1.01591797 1.05142578 0 0 Z " fill="#075387" transform="translate(140,128)"/>
<path d="M0 0 C0.33 0.66 0.66 1.32 1 2 C-0.15625 4 -0.15625 4 -2 6 C-4.88133108 6.27771866 -7.52622503 5.99774408 -10.40625 5.75 C-13.09376338 5.74333837 -13.09376338 5.74333837 -14.8125 7.69140625 C-16.87901281 11.7088703 -16.75114586 15.60650533 -16 20 C-14.1009044 23.31830353 -14.1009044 23.31830353 -11 25 C-7.65522481 24.86620899 -5.16445749 24.05481916 -2 23 C1 26.75 1 26.75 1 29 C-4.36112376 31.68056188 -7.99426726 32.57197455 -14 32 C-18.68788787 30.28711789 -21.25914806 28.16203443 -24 24 C-25.89787684 18.13040738 -25.80988483 11.4296545 -23.875 5.625 C-21.22274165 1.91183831 -18.32189138 -1.05673163 -14 -2.8125 C-8.38552587 -3.33885695 -4.93235938 -2.98235683 0 0 Z " fill="#F2F6F8" transform="translate(311,127)"/>
<path d="M0 0 C2.71104426 0.20969403 4.11166752 0.58831295 6.5625 1.875 C9.01296857 6.26542285 8.77376596 10.66347427 8.0625 15.5625 C6.12212696 19.29398661 5.00110499 20.2300774 1.0625 21.625 C-1.9375 21.5625 -1.9375 21.5625 -4.25 19.75 C-7.71074361 15.26385087 -7.3865199 11.06299375 -6.9375 5.5625 C-5.48077408 1.01023149 -4.78764015 0.68394859 0 0 Z " fill="#095588" transform="translate(329.9375,131.4375)"/>
<path d="M0 0 C2.64 0 5.28 0 8 0 C8 10.89 8 21.78 8 33 C5.36 33 2.72 33 0 33 C0 22.11 0 11.22 0 0 Z " fill="#FBFCFD" transform="translate(252,125)"/>
<path d="M0 0 C0.680625 -0.01675781 1.36125 -0.03351563 2.0625 -0.05078125 C4.65772896 0.43582418 5.48759117 1.15522974 7 3.3125 C7.76786743 8.17566038 7.62997309 12.8425628 5.6875 17.375 C4 19.3125 4 19.3125 1 21.3125 C-2.46418389 20.96608161 -4.04929881 20.27963413 -7 18.3125 C-7.30330339 15.55303386 -7.41834858 13.06754315 -7.375 10.3125 C-7.38660156 9.57515625 -7.39820313 8.8378125 -7.41015625 8.078125 C-7.3984375 5.9375 -7.3984375 5.9375 -7 2.3125 C-4.03082597 0.33305064 -3.34297721 0.01899419 0 0 Z " fill="#075487" transform="translate(229,131.6875)"/>
<path d="M0 0 C1.8975 -0.061875 3.795 -0.12375 5.75 -0.1875 C7.35101563 -0.23970703 7.35101563 -0.23970703 8.984375 -0.29296875 C12.34736757 0.03374685 13.67189647 0.58341748 16 3 C16.5625 6.5 16.5625 6.5 16 10 C13.59104787 12.57508676 11.68847006 12.9574541 8.21875 13.171875 C5.47860408 13.18599946 2.73839415 13.0989781 0 13 C0 8.71 0 4.42 0 0 Z " fill="#0B5689" transform="translate(296,74)"/>
<path d="M0 0 C1.5675 -0.061875 3.135 -0.12375 4.75 -0.1875 C6.07257813 -0.23970703 6.07257813 -0.23970703 7.421875 -0.29296875 C10.44671583 0.05076316 11.75583602 1.00227459 14 3 C13.6875 6.375 13.6875 6.375 13 10 C8.61501596 12.92332269 5.2225328 12.1356502 0 12 C0 8.04 0 4.08 0 0 Z " fill="#185F8F" transform="translate(296,53)"/>
<path d="M0 0 C1.875 1.6875 1.875 1.6875 3 4 C2.75925978 7.37036311 2.41201979 8.58798021 0 11 C-2.84602594 11.36487512 -4.3864306 11.40199375 -6.8125 9.8125 C-8.42525784 7.35092224 -8.4334014 5.88934264 -8 3 C-5.86922119 -0.25224135 -3.7535559 -0.65687228 0 0 Z " fill="#ECF1F5" transform="translate(277,148)"/>
<path d="M0 0 C0.3125 3.3125 0.3125 3.3125 0 7 C-2.60938961 9.31117365 -4.2917912 9.93561738 -7.75 10.25 C-10 10 -10 10 -11 9 C-10.71269945 6.66055264 -10.38063221 4.3260857 -10 2 C-6.49223216 0.39644899 -3.85645121 -0.22036864 0 0 Z " fill="#11598B" transform="translate(197,143)"/>
<path d="M0 0 C2.5625 0.3125 2.5625 0.3125 4.4375 1.5 C5.5625 3.3125 5.5625 3.3125 5.3125 5.9375 C4.5625 8.3125 4.5625 8.3125 3.5625 9.3125 C0.125 9.5 0.125 9.5 -3.4375 9.3125 C-4.0975 8.6525 -4.7575 7.9925 -5.4375 7.3125 C-5.03038225 3.2413225 -4.47068536 0.57316479 0 0 Z " fill="#EBF0F5" transform="translate(256.4375,109.6875)"/>
</svg>
